<?xml version="1.0" encoding="utf-8"?>
<!-- Generator: Adobe Illustrator 16.0.0, SVG Export Plug-In . SVG Version: 6.00 Build 0)  -->
<!DOCTYPE svg PUBLIC "-//W3C//DTD SVG 1.1//EN" "http://www.w3.org/Graphics/SVG/1.1/DTD/svg11.dtd">
<svg version="1.1" id="Capa_1" xmlns="http://www.w3.org/2000/svg" xmlns:xlink="http://www.w3.org/1999/xlink" x="0px" y="0px"
	 width="485.211px" height="363.909px" viewBox="0 60.65 485.211 363.909" enable-background="new 0 60.65 485.211 363.909"
	 xml:space="preserve">
<g>
	<path fill="#DDDDDD" d="M485.211,363.906c0,10.639-2.992,20.498-7.785,29.176L324.225,221.67l151.54-132.584
		c5.895,9.354,9.446,20.344,9.446,32.219V363.906L485.211,363.906z M242.606,252.793l210.863-184.5
		c-8.653-4.737-18.397-7.644-28.908-7.644H60.651c-10.522,0-20.271,2.905-28.889,7.644L242.606,252.793z M301.393,241.631
		l-48.809,42.732c-2.855,2.487-6.41,3.729-9.979,3.729c-3.568,0-7.125-1.242-9.979-3.729l-48.82-42.734L28.667,415.23
		c9.299,5.834,20.195,9.329,31.981,9.329H424.56c11.784,0,22.687-3.495,31.983-9.329L301.393,241.631z M9.448,89.085
		C3.554,98.44,0,109.429,0,121.305v242.604c0,10.637,2.978,20.496,7.789,29.174l153.183-171.44L9.448,89.085z"/>
</g>
</svg>
