<?xml version="1.0" encoding="utf-8"?>
<!-- Generator: Adobe Illustrator 16.0.0, SVG Export Plug-In . SVG Version: 6.00 Build 0)  -->
<!DOCTYPE svg PUBLIC "-//W3C//DTD SVG 1.1//EN" "http://www.w3.org/Graphics/SVG/1.1/DTD/svg11.dtd">
<svg version="1.1" id="Capa_1" xmlns="http://www.w3.org/2000/svg" xmlns:xlink="http://www.w3.org/1999/xlink" x="0px" y="0px"
	 width="521px" height="521px" viewBox="0 0 521 521" enable-background="new 0 0 521 521" xml:space="preserve">
<g>
	<path fill="#DDDDDD" d="M288.579,287.136c-8.353-4.862-19.961-4.862-29.394-4.862h-30.972v63.822h28.426
		c10.523,0,23.945,0.755,33.02-5.617c8.33-5.606,13.046-16.613,13.046-27.092C302.705,303.651,296.91,292.006,288.579,287.136z
		 M276.895,232.632c6.893-5.248,10.507-14.604,10.507-23.222c0-9.362-4.347-18.349-12.319-23.212
		c-8.342-4.863-23.585-3.739-33.376-3.739h-13.491v56.17h17.849C256.218,238.624,268.195,239.373,276.895,232.632z M429.418,0
		H91.572C41.002,0,0,41.001,0,91.582v337.836C0,479.987,41.002,521,91.572,521h337.848C479.987,521,521,479.987,521,429.419V91.582
		C521,41.001,479.987,0,429.418,0z M274.632,393.654H168.197V136.767h116.291c33.688,0,64.768,21.442,64.768,59.264
		c0,29.203-16.304,49.202-37.101,55.417v0.754c30.837,6.372,52.86,23.119,52.86,63.523
		C365.015,353.119,339.55,393.654,274.632,393.654z"/>
</g>
</svg>
